<mxfile host="app.diagrams.net" modified="2024-03-13T09:49:46.968Z" agent="Mozilla/5.0 (Windows NT 10.0; Win64; x64) AppleWebKit/537.36 (KHTML, like Gecko) Chrome/122.0.0.0 Safari/537.36 Edg/122.0.0.0" version="24.0.5" etag="c8UZsZRxhLh2CN5ayrol" type="github">
  <diagram name="第 1 页" id="pD1kKU6MXvbNj64g7TcM">
    <mxGraphModel>
      <root>
        <mxCell id="0" />
        <mxCell id="1" parent="0" />
      </root>
    </mxGraphModel>
  </diagram>
</mxfile>
